<svg xmlns="http://www.w3.org/2000/svg" version="1.2" viewBox="0 0.1 187.3 142.9"><style>.a{fill:#0c0d0d;stroke:#fff}.b{fill:#fff}.c{fill:#ffae44}.d{fill:#b0b9b7}</style><path class="a" d="m64 100.2h122.8"/><path fill-rule="evenodd" class="b" d="m70.9 117.2l-2.2-4h-2.4v4h-0.9v-9.8h4.3l1.6 1.6v2.6l-1.6 1.6 2.3 4zm-1.7-8.9h-2.9v4.1h2.9l1.1-1.1v-1.9z"/><path class="b" d="m75.1 112.6v3.7h4.7v0.9h-5.6v-9.8h5.6v0.9h-4.7v3.4h4.3v0.9z"/><path fill-rule="evenodd" class="b" d="m89 115.6l-1.6 1.6h-5v-9.8h5l1.6 1.6zm-5.6-7.4v8.1h3.6l1.1-1.1v-5.9l-1.1-1.1z"/><path class="b" d="m96.1 109.4v5.8l1.1 1.1h2.6l1.3-1.3 0.6 0.7-1.5 1.5h-3.5l-1.6-1.6v-6.6l1.6-1.6h3.4l1.4 1.4-0.6 0.7-1.3-1.2h-2.4z"/><path fill-rule="evenodd" class="b" d="m110.3 115.6l-1.6 1.6h-3.5l-1.6-1.6v-6.6l1.6-1.6h3.5l1.6 1.6zm-5.8-6.3v5.9l1.1 1.1h2.7l1-1.1v-5.9l-1-1.1h-2.7z"/><path class="b" d="m118.8 116.3v0.9h-5.6v-9.8h1v8.9z"/><path fill-rule="evenodd" class="b" d="m127.3 115.6l-1.6 1.6h-3.5l-1.6-1.6v-6.6l1.6-1.6h3.5l1.6 1.6zm-5.7-6.3v5.9l1.1 1.1h2.6l1.1-1.1v-5.9l-1.1-1.1h-2.6z"/><path class="b" d="m138 108.8l-2.9 8.4h-1l-2.9-8.4v8.4h-0.9v-9.8h1.4l2.9 8.6 3-8.6h1.4v9.8h-1v-8.4z"/><path fill-rule="evenodd" class="b" d="m148 111.1l-1 1 1.3 1.2v2.3l-1.6 1.6h-4.7v-9.8h4.4l1.6 1.6zm-2-2.8h-3.1v3.4h3.3l0.9-0.9v-1.4zm-3.1 8h3.4l1.1-1.1v-1.5l-1.1-1.1h-3.4z"/><path class="b" d="m150.4 108.3v-0.9h4.2v0.9h-1.6v8h1.6v0.9h-4.2v-0.9h1.6v-8z"/><path fill-rule="evenodd" class="b" d="m160 107.4l3 9.8h-0.9l-0.8-2.7h-3.6l-0.8 2.7h-1l3.1-9.8zm-0.5 1.2l-1.5 5.1h3l-1.5-5.1z"/><path class="b" d="m171.3 117.2h-1.2l-4.2-8.4v8.4h-1v-9.8h1.3l4.2 8.4v-8.4h0.9z"/><path fill-rule="evenodd" class="b" d="m177.3 107.4l3 9.8h-0.9l-0.8-2.7h-3.6l-0.8 2.7h-1l3.1-9.8zm-0.5 1.2l-1.5 5.1h3l-1.5-5.1z"/><path fill-rule="evenodd" class="b" d="m72 128.5l-1.6 1.6h-5v-9.8h5l1.6 1.6zm-5.7-7.3v8h3.7l1.1-1.1v-5.8l-1.1-1.1z"/><path class="b" d="m75.9 125.5v3.7h4.7v0.9h-5.7v-9.8h5.7v0.9h-4.7v3.5h4.3v0.8z"/><path class="b" d="m91.9 130.1v-4.6h-4.5v4.6h-0.9v-9.8h0.9v4.3h4.5v-4.3h1v9.8z"/><path class="b" d="m102.4 120.3v8.2l-1.5 1.6h-3.4l-1.6-1.6v-8.2h0.9v7.8l1.1 1.1h2.5l1.1-1v-7.9z"/><path class="b" d="m113.2 121.7l-2.8 8.4h-1.1l-2.9-8.4v8.4h-0.9v-9.8h1.4l2.9 8.6 3-8.6h1.4v9.8h-0.9v-8.4z"/><path fill-rule="evenodd" class="b" d="m120.1 120.3l3.1 9.8h-0.9l-0.9-2.6h-3.6l-0.8 2.6h-0.9l3-9.8zm-0.5 1.2l-1.5 5.1h3.1l-1.5-5.1z"/><path class="b" d="m131.5 130.1h-1.2l-4.3-8.4v8.4h-0.9v-9.8h1.2l4.2 8.4h0.1v-8.4h0.9z"/><path class="b" d="m134 121.2v-0.9h4.1v0.9h-1.6v8h1.6v0.9h-4.1v-0.9h1.6v-8z"/><path fill-rule="evenodd" class="b" d="m147.2 128.5l-1.6 1.6h-5v-9.8h5l1.6 1.6zm-5.7-7.3v8h3.6l1.1-1.1v-5.8l-1.1-1.1z"/><path fill-rule="evenodd" class="b" d="m153 120.3l3.1 9.8h-0.9l-0.9-2.6h-3.5l-0.9 2.6h-0.9l3.1-9.8zm-0.6 1.2l-1.5 5.1h3.1l-1.5-5.1z"/><path fill-rule="evenodd" class="b" d="m164.6 128.5l-1.6 1.6h-5v-9.8h5l1.6 1.6zm-5.7-7.3v8h3.6l1.1-1.1v-5.8l-1.1-1.1z"/><path class="b" d="m168.4 125.5v3.7h4.8v0.9h-5.7v-9.8h5.7v0.9h-4.8v3.5h4.3v0.8z"/><path class="b" d="m176.3 122.3v1.3l1.1 1.1h2.9l1.6 1.6v2.2l-1.6 1.6h-3.7l-1.5-1.5 0.7-0.6 1.3 1.2h2.8l1.1-1v-1.5l-1.1-1.1h-3l-1.5-1.6v-2.1l1.5-1.6h3.3l1.4 1.4-0.7 0.6-1.1-1.1h-2.4z"/><path fill-rule="evenodd" class="b" d="m72 141.5l-1.6 1.5h-5v-9.7h5l1.6 1.6zm-5.7-7.4v8.1h3.7l1.1-1.1v-5.9l-1.1-1.1z"/><path class="b" d="m74.4 134.1v-0.8h4.2v0.8h-1.7v8.1h1.7v0.8h-4.2v-0.8h1.6v-8.1z"/><path class="b" d="m85.5 134.1h-2.5l-1.1 1.1v5.9l1.1 1.1h2.6l1.1-1.1v-2.2h-2.5v-0.9h3.4v3.5l-1.6 1.5h-3.5l-1.5-1.5v-6.6l1.5-1.6h3.5l1.4 1.4-0.7 0.7z"/><path class="b" d="m89.8 134.1v-0.8h4.2v0.8h-1.7v8.1h1.7v0.8h-4.2v-0.8h1.6v-8.1z"/><path class="b" d="m101.9 134.1h-2.8v8.9h-1v-8.9h-2.8v-0.8h6.6z"/><path fill-rule="evenodd" class="b" d="m106.1 133.3l3.1 9.7h-0.9l-0.9-2.6h-3.6l-0.8 2.6h-0.9l3-9.7zm-0.5 1.2l-1.5 5.1h3.1l-1.5-5.1z"/><path class="b" d="m116.7 142.2v0.8h-5.6v-9.7h0.9v8.9z"/><path class="b" d="m119.5 138.5v3.7h4.7v0.8h-5.6v-9.7h5.6v0.8h-4.7v3.5h4.3v0.9z"/><path class="b" d="m127.3 135.2v1.4l1.1 1.1h3l1.5 1.5v2.3l-1.5 1.5h-3.7l-1.5-1.4 0.6-0.7 1.3 1.3h2.8l1.1-1.1v-1.5l-1.1-1.1h-2.9l-1.6-1.5v-2.1l1.6-1.6h3.3l1.3 1.3-0.7 0.6-1.1-1.1h-2.4z"/><path fill-rule="evenodd" class="b" d="m81.1 59.8l-4.9-9.3h-1.4v9.3h-8v-25.6h16.8l4.1 4v7.9l-4 3.5 6.1 10.2zm-1.5-19.8l-0.7-0.7h-4v6h4l0.7-0.7z"/><path class="b" d="m97.3 60l-4.1-4v-18l4.1-4h13.9l3.7 4-6.2 4.5-2.3-2.3h-4.4l-0.7 0.7v12.2l0.7 0.7h4.4l2.3-2.3 6.3 4.4-3.8 4.1z"/><path class="b" d="m80.3 93.2v-9.9h-5.5v9.9h-8v-25.7h8v9.2h5.5v-9.2h8.1v25.7z"/><path fill-rule="evenodd" class="b" d="m94.8 67.5h18l4 4.1v17.6l-4 4h-18zm13.9 19.1v-12.5l-0.7-0.7h-5.1v13.9h5.1z"/><path fill-rule="evenodd" class="b" d="m81.1 59.8l-4.9-9.3h-1.4v9.3h-8v-25.6h16.8l4.1 4v7.9l-4 3.5 6.1 10.2zm-1.5-19.8l-0.7-0.7h-4v6h4l0.7-0.7z"/><path class="c" d="m97.3 60l-4.1-4v-18l4.1-4h13.9l3.7 4-6.2 4.5-2.3-2.3h-4.4l-0.7 0.7v12.2l0.7 0.7h4.4l2.3-2.3 6.3 4.4-3.8 4.1z"/><path class="b" d="m80.3 93.2v-9.9h-5.5v9.9h-8v-25.7h8v9.2h5.5v-9.2h8.1v25.7z"/><path fill-rule="evenodd" class="b" d="m94.8 67.5h18l4 4.1v17.6l-4 4h-18zm13.9 19.1v-12.5l-0.7-0.7h-5.1v13.9h5.1z"/><path class="b" d="m62.1 44.8c-0.3 0-0.5-0.2-0.5-0.4 0-0.2 0.2-0.4 0.5-0.4 0.2 0 0.4 0.2 0.4 0.4 0 0.2-0.2 0.4-0.4 0.4z"/><path class="b" d="m58.2 41.1c-0.4 0-0.7-0.3-0.7-0.7 0-0.4 0.3-0.7 0.7-0.7 0.4 0 0.7 0.3 0.7 0.7 0 0.4-0.3 0.7-0.7 0.7z"/><path class="b" d="m54.4 37.3c-0.5 0-0.9-0.4-0.9-0.9 0-0.5 0.4-0.9 0.9-0.9 0.5 0 0.9 0.4 0.9 0.9 0 0.5-0.4 0.9-0.9 0.9z"/><circle class="b" cx="50.5" cy="32.4" r="1.1"/><circle class="b" cx="46.7" cy="28.3" r="1.3"/><circle class="b" cx="42.8" cy="24.3" r="1.5"/><circle class="b" cx="43.1" cy="19.2" r="1.4"/><path class="b" d="m44.5 14.8c-0.6 0-1-0.4-1-1 0-0.5 0.4-0.9 1-0.9 0.5 0 0.9 0.4 0.9 0.9 0 0.6-0.4 1-0.9 1z"/><path class="b" d="m62.1 44.8c-0.3 0-0.5-0.2-0.5-0.4 0-0.2 0.2-0.4 0.5-0.4 0.2 0 0.4 0.2 0.4 0.4 0 0.2-0.2 0.4-0.4 0.4z"/><path class="b" d="m58.2 41.1c-0.4 0-0.7-0.3-0.7-0.7 0-0.4 0.3-0.7 0.7-0.7 0.4 0 0.7 0.3 0.7 0.7 0 0.4-0.3 0.7-0.7 0.7z"/><path class="b" d="m54.4 37.3c-0.5 0-0.9-0.4-0.9-0.9 0-0.5 0.4-0.9 0.9-0.9 0.5 0 0.9 0.4 0.9 0.9 0 0.5-0.4 0.9-0.9 0.9z"/><circle class="b" cx="50.5" cy="32.4" r="1.1"/><circle class="b" cx="46.7" cy="28.3" r="1.3"/><circle class="c" cx="42.8" cy="24.3" r="1.5"/><circle class="b" cx="37.7" cy="24.3" r="1.4"/><path class="b" d="m32.3 26.4c-0.5 0-1-0.4-1-0.9 0-0.6 0.5-1 1-1 0.5 0 0.9 0.4 0.9 1 0 0.5-0.4 0.9-0.9 0.9z"/><path class="b" d="m45.6 14c-0.1 0-0.2 0-0.2-0.1 0-0.1 0.1-0.2 0.2-0.2 0.1 0 0.1 0.1 0.1 0.2 0 0.1 0 0.1-0.1 0.1z"/><path class="b" d="m49.6 10.9c-0.5 0-0.9-0.4-0.9-0.9 0-0.5 0.4-0.8 0.9-0.8 0.5 0 0.9 0.3 0.9 0.8 0 0.5-0.4 0.9-0.9 0.9z"/><circle class="b" cx="53.6" cy="6.2" r="1.5"/><path class="b" d="m53.3 1.5c-0.3 0-0.5-0.2-0.5-0.5 0-0.3 0.2-0.5 0.5-0.5 0.3 0 0.5 0.2 0.5 0.5 0 0.3-0.2 0.5-0.5 0.5z"/><path class="b" d="m45.6 14c-0.1 0-0.2 0-0.2-0.1 0-0.1 0.1-0.2 0.2-0.2 0.1 0 0.1 0.1 0.1 0.2 0 0.1 0 0.1-0.1 0.1z"/><path class="b" d="m49.6 10.9c-0.5 0-0.9-0.4-0.9-0.9 0-0.5 0.4-0.8 0.9-0.8 0.5 0 0.9 0.3 0.9 0.8 0 0.5-0.4 0.9-0.9 0.9z"/><circle class="b" cx="53.6" cy="6.2" r="1.5"/><path class="b" d="m58.8 7.2c-0.3 0-0.5-0.2-0.5-0.5 0-0.3 0.2-0.5 0.5-0.5 0.3 0 0.5 0.2 0.5 0.5 0 0.3-0.2 0.5-0.5 0.5z"/><path class="b" d="m45.6 14c-0.1 0-0.2 0-0.2-0.1 0-0.1 0.1-0.2 0.2-0.2 0 0 0.1 0.1 0.1 0.2 0 0.1-0.1 0.1-0.1 0.1z"/><path class="b" d="m41.7 10.7c-0.5 0-0.8-0.4-0.8-0.8 0-0.5 0.3-0.9 0.8-0.9 0.5 0 0.9 0.4 0.9 0.9 0 0.4-0.4 0.8-0.9 0.8z"/><circle class="b" cx="37.9" cy="5.8" r="1.5"/><path class="b" d="m38.4 1.2c-0.3 0-0.5-0.3-0.5-0.5 0-0.3 0.2-0.6 0.5-0.6 0.3 0 0.5 0.3 0.5 0.6 0 0.2-0.2 0.5-0.5 0.5z"/><path class="b" d="m45.6 14c-0.1 0-0.2 0-0.2-0.1 0-0.1 0.1-0.2 0.2-0.2 0 0 0.1 0.1 0.1 0.2 0 0.1-0.1 0.1-0.1 0.1z"/><path class="b" d="m41.7 10.7c-0.5 0-0.8-0.4-0.8-0.8 0-0.5 0.3-0.9 0.8-0.9 0.5 0 0.9 0.4 0.9 0.9 0 0.4-0.4 0.8-0.9 0.8z"/><circle class="b" cx="37.9" cy="5.8" r="1.5"/><path class="b" d="m32.7 6.6c-0.3 0-0.5-0.2-0.5-0.5 0-0.3 0.2-0.5 0.5-0.5 0.3 0 0.5 0.2 0.5 0.5 0 0.3-0.2 0.5-0.5 0.5z"/><path class="b" d="m31.6 26.1c-0.1 0-0.1-0.1-0.1-0.2 0 0 0-0.1 0.1-0.1 0.1 0 0.2 0.1 0.2 0.1 0 0.1-0.1 0.2-0.2 0.2z"/><path class="b" d="m28.3 22.3c-0.5 0-0.9-0.3-0.9-0.8 0-0.5 0.4-0.9 0.9-0.9 0.5 0 0.9 0.4 0.9 0.9 0 0.5-0.4 0.8-0.9 0.8z"/><circle class="b" cx="25" cy="17" r="1.5"/><path class="b" d="m19.8 17.2c-0.3 0-0.5-0.2-0.5-0.5 0-0.3 0.2-0.5 0.5-0.5 0.3 0 0.5 0.2 0.5 0.5 0 0.3-0.2 0.5-0.5 0.5z"/><path class="b" d="m31.6 26.1c-0.1 0-0.1-0.1-0.1-0.2 0 0 0-0.1 0.1-0.1 0.1 0 0.2 0.1 0.2 0.1 0 0.1-0.1 0.2-0.2 0.2z"/><path class="b" d="m28.3 22.3c-0.5 0-0.9-0.3-0.9-0.8 0-0.5 0.4-0.9 0.9-0.9 0.5 0 0.9 0.4 0.9 0.9 0 0.5-0.4 0.8-0.9 0.8z"/><circle class="b" cx="25" cy="17" r="1.5"/><path class="b" d="m26.2 12.5c-0.3 0-0.6-0.3-0.6-0.6 0-0.2 0.3-0.5 0.6-0.5 0.2 0 0.5 0.3 0.5 0.5 0 0.3-0.3 0.6-0.5 0.6z"/><path class="b" d="m31.6 26.1c-0.1 0-0.1-0.1-0.1-0.2 0 0 0-0.1 0.1-0.1 0.1 0 0.2 0.1 0.2 0.1 0 0.1-0.1 0.2-0.2 0.2z"/><path class="b" d="m27.2 30.1c-0.5 0-0.9-0.4-0.9-0.8 0-0.5 0.4-0.9 0.9-0.9 0.4 0 0.8 0.4 0.8 0.9 0 0.4-0.4 0.8-0.8 0.8z"/><circle class="b" cx="22.7" cy="32.6" r="1.5"/><path class="b" d="m17.6 31.9c-0.3 0-0.5-0.2-0.5-0.5 0-0.3 0.2-0.5 0.5-0.5 0.3 0 0.5 0.2 0.5 0.5 0 0.3-0.2 0.5-0.5 0.5z"/><path class="b" d="m31.6 26.1c-0.1 0-0.1-0.1-0.1-0.2 0 0 0-0.1 0.1-0.1 0.1 0 0.2 0.1 0.2 0.1 0 0.1-0.1 0.2-0.2 0.2z"/><path class="b" d="m27.2 30.1c-0.5 0-0.9-0.4-0.9-0.8 0-0.5 0.4-0.9 0.9-0.9 0.4 0 0.8 0.4 0.8 0.9 0 0.4-0.4 0.8-0.8 0.8z"/><circle class="b" cx="22.7" cy="32.6" r="1.5"/><path class="b" d="m22.4 38.3c-0.3 0-0.6-0.3-0.6-0.5 0-0.3 0.3-0.5 0.6-0.5 0.2 0 0.5 0.2 0.5 0.5 0 0.2-0.3 0.5-0.5 0.5z"/><path class="b" d="m61.9 85.1c0.2 0 0.4 0.2 0.4 0.4 0 0.3-0.2 0.5-0.4 0.5-0.2 0-0.4-0.2-0.4-0.5 0-0.2 0.2-0.4 0.4-0.4z"/><path class="b" d="m57.9 88.7c0.3 0 0.7 0.3 0.7 0.7 0 0.3-0.4 0.7-0.7 0.7-0.4 0-0.7-0.4-0.7-0.7 0-0.4 0.3-0.7 0.7-0.7z"/><path class="b" d="m53.9 92.3c0.5 0 0.9 0.4 0.9 0.9 0 0.5-0.4 0.9-0.9 0.9-0.5 0-0.9-0.4-0.9-0.9 0-0.5 0.4-0.9 0.9-0.9z"/><circle class="b" cx="49.8" cy="97.1" r="1.1"/><circle class="b" cx="45.8" cy="100.9" r="1.3"/><circle class="c" cx="41.8" cy="104.8" r="1.5"/><circle class="b" cx="41.8" cy="109.9" r="1.4"/><path class="b" d="m43 114.4c0.5 0 0.9 0.4 0.9 0.9 0 0.5-0.4 1-0.9 1-0.6 0-1-0.5-1-1 0-0.5 0.4-0.9 1-0.9z"/><path class="b" d="m26 101.6c0 0 0.1 0.1 0.1 0.2 0 0-0.1 0.1-0.1 0.1-0.1 0-0.2-0.1-0.2-0.1 0-0.1 0.1-0.2 0.2-0.2z"/><path class="b" d="m31.4 102.8c0.1 0 0.3 0.2 0.3 0.3 0 0.2-0.2 0.4-0.3 0.4-0.2 0-0.4-0.2-0.4-0.4 0-0.1 0.2-0.3 0.4-0.3z"/><path class="b" d="m36.7 104.1c0.3 0 0.5 0.2 0.5 0.4 0 0.3-0.2 0.5-0.5 0.5-0.2 0-0.4-0.2-0.4-0.5 0-0.2 0.2-0.4 0.4-0.4z"/><path class="b" d="m45.8 100.1c0.5 0 0.8 0.4 0.8 0.8 0 0.4-0.3 0.7-0.8 0.7-0.4 0-0.7-0.3-0.7-0.7 0-0.4 0.3-0.8 0.7-0.8z"/><path class="b" d="m49.9 96.2c0.4 0 0.8 0.4 0.8 0.8 0 0.5-0.4 0.9-0.8 0.9-0.5 0-0.9-0.4-0.9-0.9 0-0.4 0.4-0.8 0.9-0.8z"/><path class="b" d="m53.9 92.2c0.5 0 1 0.5 1 1 0 0.5-0.5 1-1 1-0.5 0-1-0.5-1-1 0-0.5 0.5-1 1-1z"/><circle class="b" cx="57.9" cy="89.3" r="1.1"/><circle class="b" cx="61.9" cy="85.5" r="1.2"/><path class="b" d="m42.8 117.1c0.1 0 0.1 0.1 0.1 0.1 0 0.1 0 0.2-0.1 0.2-0.1 0-0.1-0.1-0.1-0.2 0 0 0-0.1 0.1-0.1z"/><path class="b" d="m46.6 120.4c0.5 0 0.9 0.4 0.9 0.9 0 0.4-0.4 0.8-0.9 0.8-0.4 0-0.8-0.4-0.8-0.8 0-0.5 0.4-0.9 0.8-0.9z"/><circle class="b" cx="50.5" cy="125.3" r="1.5"/><path class="b" d="m50 129.9c0.2 0 0.5 0.3 0.5 0.6 0 0.2-0.3 0.5-0.5 0.5-0.3 0-0.6-0.3-0.6-0.5 0-0.3 0.3-0.6 0.6-0.6z"/><path class="b" d="m42.8 117.1c0.1 0 0.1 0.1 0.1 0.1 0 0.1 0 0.2-0.1 0.2-0.1 0-0.1-0.1-0.1-0.2 0 0 0-0.1 0.1-0.1z"/><path class="b" d="m46.6 120.4c0.5 0 0.9 0.4 0.9 0.9 0 0.4-0.4 0.8-0.9 0.8-0.4 0-0.8-0.4-0.8-0.8 0-0.5 0.4-0.9 0.8-0.9z"/><circle class="b" cx="50.5" cy="125.3" r="1.5"/><path class="b" d="m55.7 124.5c0.3 0 0.5 0.2 0.5 0.5 0 0.3-0.2 0.5-0.5 0.5-0.3 0-0.5-0.2-0.5-0.5 0-0.3 0.2-0.5 0.5-0.5z"/><path class="b" d="m42.8 117.1c0.1 0 0.1 0.1 0.1 0.1 0 0.1 0 0.2-0.1 0.2-0.1 0-0.2-0.1-0.2-0.2 0 0 0.1-0.1 0.2-0.1z"/><path class="b" d="m38.8 120.2c0.5 0 0.8 0.4 0.8 0.9 0 0.5-0.3 0.9-0.8 0.9-0.5 0-0.9-0.4-0.9-0.9 0-0.5 0.4-0.9 0.9-0.9z"/><circle class="b" cx="34.8" cy="124.9" r="1.5"/><path class="b" d="m35.1 129.6c0.2 0 0.5 0.2 0.5 0.5 0 0.3-0.3 0.5-0.5 0.5-0.3 0-0.6-0.2-0.6-0.5 0-0.3 0.3-0.5 0.6-0.5z"/><path class="b" d="m42.8 117.1c0.1 0 0.1 0.1 0.1 0.1 0 0.1 0 0.2-0.1 0.2-0.1 0-0.2-0.1-0.2-0.2 0 0 0.1-0.1 0.2-0.1z"/><path class="b" d="m38.8 120.2c0.5 0 0.8 0.4 0.8 0.9 0 0.5-0.3 0.9-0.8 0.9-0.5 0-0.9-0.4-0.9-0.9 0-0.5 0.4-0.9 0.9-0.9z"/><circle class="b" cx="34.8" cy="124.9" r="1.5"/><path class="b" d="m29.6 123.9c0.3 0 0.5 0.2 0.5 0.5 0 0.3-0.2 0.5-0.5 0.5-0.3 0-0.5-0.2-0.5-0.5 0-0.3 0.2-0.5 0.5-0.5z"/><path class="b" d="m29.4 104.4c0.1 0 0.2 0.1 0.2 0.2 0 0-0.1 0.1-0.2 0.1-0.1 0-0.1-0.1-0.1-0.1 0-0.1 0-0.2 0.1-0.2z"/><path class="b" d="m25.9 108c0.5 0 0.9 0.4 0.9 0.9 0 0.5-0.4 0.9-0.9 0.9-0.5 0-0.9-0.4-0.9-0.9 0-0.5 0.4-0.9 0.9-0.9z"/><circle class="b" cx="22.4" cy="113.2" r="1.5"/><path class="b" d="m17.2 112.8c0.3 0 0.5 0.2 0.5 0.5 0 0.3-0.2 0.5-0.5 0.5-0.3 0-0.5-0.2-0.5-0.5 0-0.3 0.2-0.5 0.5-0.5z"/><path class="b" d="m29.4 104.4c0.1 0 0.2 0.1 0.2 0.2 0 0-0.1 0.1-0.2 0.1-0.1 0-0.1-0.1-0.1-0.1 0-0.1 0-0.2 0.1-0.2z"/><path class="b" d="m25.9 108c0.5 0 0.9 0.4 0.9 0.9 0 0.5-0.4 0.9-0.9 0.9-0.5 0-0.9-0.4-0.9-0.9 0-0.5 0.4-0.9 0.9-0.9z"/><circle class="b" cx="22.4" cy="113.2" r="1.5"/><path class="b" d="m23.3 117.8c0.3 0 0.5 0.2 0.5 0.5 0 0.3-0.2 0.5-0.5 0.5-0.3 0-0.5-0.2-0.5-0.5 0-0.3 0.2-0.5 0.5-0.5z"/><path class="b" d="m29.4 104.4c0.1 0 0.2 0.1 0.2 0.2 0 0-0.1 0.1-0.2 0.1-0.1 0-0.1-0.1-0.1-0.1 0-0.1 0-0.2 0.1-0.2z"/><path class="b" d="m25.1 100.2c0.5 0 0.9 0.4 0.9 0.9 0 0.4-0.4 0.8-0.9 0.8-0.5 0-0.9-0.4-0.9-0.8 0-0.5 0.4-0.9 0.9-0.9z"/><circle class="b" cx="20.8" cy="97.5" r="1.5"/><path class="b" d="m15.7 98c0.3 0 0.5 0.2 0.5 0.5 0 0.3-0.2 0.5-0.5 0.5-0.3 0-0.5-0.2-0.5-0.5 0-0.3 0.2-0.5 0.5-0.5z"/><path class="b" d="m29.4 104.4c0.1 0 0.2 0.1 0.2 0.2 0 0-0.1 0.1-0.2 0.1-0.1 0-0.1-0.1-0.1-0.1 0-0.1 0-0.2 0.1-0.2z"/><path class="b" d="m25.1 100.2c0.5 0 0.9 0.4 0.9 0.9 0 0.4-0.4 0.8-0.9 0.8-0.5 0-0.9-0.4-0.9-0.8 0-0.5 0.4-0.9 0.9-0.9z"/><circle class="b" cx="20.8" cy="97.5" r="1.5"/><path class="b" d="m20.7 91.8c0.3 0 0.5 0.3 0.5 0.5 0 0.3-0.2 0.6-0.5 0.6-0.3 0-0.5-0.3-0.5-0.6 0-0.2 0.2-0.5 0.5-0.5z"/><path class="b" d="m49.4 65.1c0 0.1 0 0.1-0.1 0.1-0.1 0-0.2 0-0.2-0.1 0-0.1 0.1-0.2 0.2-0.2 0.1 0 0.1 0.1 0.1 0.2z"/><path class="b" d="m45.7 68.9c0 0.2-0.2 0.4-0.4 0.4-0.3 0-0.5-0.2-0.5-0.4 0-0.2 0.2-0.4 0.5-0.4 0.2 0 0.4 0.2 0.4 0.4z"/><path class="b" d="m41.9 72.8c0 0.3-0.3 0.6-0.7 0.6-0.3 0-0.6-0.3-0.6-0.6 0-0.4 0.3-0.7 0.6-0.7 0.4 0 0.7 0.3 0.7 0.7z"/><path class="b" d="m38.1 76.6c0 0.5-0.4 0.9-0.9 0.9-0.5 0-0.9-0.4-0.9-0.9 0-0.5 0.4-0.9 0.9-0.9 0.5 0 0.9 0.4 0.9 0.9z"/><circle class="b" cx="33.2" cy="80.4" r="1.1"/><circle class="b" cx="29.2" cy="84.3" r="1.3"/><circle class="b" cx="25.2" cy="88.1" r="1.5"/><circle class="b" cx="20.1" cy="87.9" r="1.4"/><path class="b" d="m15.6 86.5c0 0.5-0.4 1-0.9 1-0.6 0-1-0.5-1-1 0-0.5 0.4-1 1-1 0.5 0 0.9 0.5 0.9 1z"/><path class="b" d="m49.4 65.1c0 0.1 0 0.1-0.1 0.1-0.1 0-0.2 0-0.2-0.1 0-0.1 0.1-0.2 0.2-0.2 0.1 0 0.1 0.1 0.1 0.2z"/><path class="b" d="m45.7 68.9c0 0.2-0.2 0.4-0.4 0.4-0.3 0-0.5-0.2-0.5-0.4 0-0.2 0.2-0.4 0.5-0.4 0.2 0 0.4 0.2 0.4 0.4z"/><path class="b" d="m41.9 72.8c0 0.3-0.3 0.6-0.7 0.6-0.3 0-0.6-0.3-0.6-0.6 0-0.4 0.3-0.7 0.6-0.7 0.4 0 0.7 0.3 0.7 0.7z"/><path class="b" d="m38.1 76.6c0 0.5-0.4 0.9-0.9 0.9-0.5 0-0.9-0.4-0.9-0.9 0-0.5 0.4-0.9 0.9-0.9 0.5 0 0.9 0.4 0.9 0.9z"/><circle class="b" cx="33.2" cy="80.4" r="1.1"/><circle class="b" cx="29.2" cy="84.3" r="1.3"/><circle class="c" cx="25.2" cy="88.1" r="1.5"/><circle class="b" cx="25.2" cy="93.2" r="1.4"/><path class="b" d="m27.3 98.7c0 0.5-0.4 0.9-1 0.9-0.5 0-0.9-0.4-0.9-0.9 0-0.5 0.4-1 0.9-1 0.6 0 1 0.5 1 1z"/><path class="b" d="m49.4 65.1c0 0 0 0.1-0.1 0.1-0.1 0-0.2-0.1-0.2-0.1 0-0.1 0.1-0.2 0.2-0.2 0.1 0 0.1 0.1 0.1 0.2z"/><path class="b" d="m45.9 61c0 0.3-0.2 0.5-0.5 0.5-0.2 0-0.4-0.2-0.4-0.5 0-0.2 0.2-0.4 0.4-0.4 0.3 0 0.5 0.2 0.5 0.4z"/><path class="b" d="m42.3 57c0 0.4-0.3 0.7-0.7 0.7-0.4 0-0.7-0.3-0.7-0.7 0-0.3 0.3-0.7 0.7-0.7 0.4 0 0.7 0.4 0.7 0.7z"/><path class="b" d="m38.7 53c0 0.5-0.5 0.9-0.9 0.9-0.5 0-0.9-0.4-0.9-0.9 0-0.5 0.4-0.9 0.9-0.9 0.4 0 0.9 0.4 0.9 0.9z"/><circle class="b" cx="33.9" cy="49" r="1.1"/><circle class="b" cx="30.1" cy="45" r="1.3"/><circle class="c" cx="26.2" cy="40.9" r="1.5"/><circle class="b" cx="21.1" cy="41" r="1.4"/><path class="b" d="m16.6 42.1c0 0.5-0.4 1-0.9 1-0.6 0-1-0.5-1-1 0-0.5 0.4-0.9 1-0.9 0.5 0 0.9 0.4 0.9 0.9z"/><path class="b" d="m29.4 25.1c0 0.1-0.1 0.2-0.2 0.2-0.1 0-0.1-0.1-0.1-0.2 0-0.1 0-0.1 0.1-0.1 0.1 0 0.2 0 0.2 0.1z"/><path class="b" d="m28.2 30.5c0 0.2-0.2 0.3-0.4 0.3-0.1 0-0.3-0.1-0.3-0.3 0-0.2 0.2-0.3 0.3-0.3 0.2 0 0.4 0.1 0.4 0.3z"/><path class="b" d="m26.9 35.9c0 0.2-0.2 0.4-0.4 0.4-0.3 0-0.5-0.2-0.5-0.4 0-0.3 0.2-0.5 0.5-0.5 0.2 0 0.4 0.2 0.4 0.5z"/><path class="c" d="m26.8 41c0 0.3-0.2 0.6-0.6 0.6-0.3 0-0.6-0.3-0.6-0.6 0-0.4 0.3-0.6 0.6-0.6 0.4 0 0.6 0.2 0.6 0.6z"/><path class="b" d="m30.8 45c0 0.4-0.3 0.7-0.7 0.7-0.4 0-0.8-0.3-0.8-0.7 0-0.4 0.4-0.7 0.8-0.7 0.4 0 0.7 0.3 0.7 0.7z"/><path class="b" d="m34.8 49c0 0.5-0.4 0.9-0.9 0.9-0.4 0-0.8-0.4-0.8-0.9 0-0.5 0.4-0.8 0.8-0.8 0.5 0 0.9 0.3 0.9 0.8z"/><path class="b" d="m38.8 53c0 0.6-0.5 1-1 1-0.6 0-1-0.4-1-1 0-0.5 0.4-0.9 1-0.9 0.5 0 1 0.4 1 0.9z"/><circle class="b" cx="41.6" cy="57.1" r="1.1"/><circle class="b" cx="45.5" cy="61.1" r="1.2"/><circle class="d" cx="49.3" cy="65.1" r="1.3"/><circle class="b" cx="54.9" cy="65.1" r="1.5"/><circle class="b" cx="60.5" cy="65.1" r="1.5"/><path class="b" d="m13.9 41.9c0 0.1-0.1 0.2-0.2 0.2-0.1 0-0.1-0.1-0.1-0.2 0 0 0-0.1 0.1-0.1 0.1 0 0.2 0.1 0.2 0.1z"/><path class="b" d="m10.6 45.8c0 0.5-0.4 0.9-0.9 0.9-0.5 0-0.9-0.4-0.9-0.9 0-0.5 0.4-0.9 0.9-0.9 0.5 0 0.9 0.4 0.9 0.9z"/><circle class="b" cx="5.7" cy="49.6" r="1.5"/><path class="b" d="m1 49.1c0 0.3-0.2 0.5-0.5 0.5-0.3 0-0.5-0.2-0.5-0.5 0-0.3 0.2-0.5 0.5-0.5 0.3 0 0.5 0.2 0.5 0.5z"/><path class="b" d="m13.9 41.9c0 0.1-0.1 0.2-0.2 0.2-0.1 0-0.1-0.1-0.1-0.2 0 0 0-0.1 0.1-0.1 0.1 0 0.2 0.1 0.2 0.1z"/><path class="b" d="m10.6 45.8c0 0.5-0.4 0.9-0.9 0.9-0.5 0-0.9-0.4-0.9-0.9 0-0.5 0.4-0.9 0.9-0.9 0.5 0 0.9 0.4 0.9 0.9z"/><circle class="b" cx="5.7" cy="49.6" r="1.5"/><path class="b" d="m6.5 54.8c0 0.3-0.2 0.5-0.5 0.5-0.3 0-0.5-0.2-0.5-0.5 0-0.3 0.2-0.5 0.5-0.5 0.3 0 0.5 0.2 0.5 0.5z"/><path class="b" d="m13.9 41.9c0 0.1-0.1 0.2-0.2 0.2-0.1 0-0.1-0.1-0.1-0.2 0 0 0-0.1 0.1-0.1 0.1 0 0.2 0.1 0.2 0.1z"/><path class="b" d="m10.8 37.9c0 0.5-0.4 0.9-0.9 0.9-0.5 0-0.9-0.4-0.9-0.9 0-0.5 0.4-0.8 0.9-0.8 0.5 0 0.9 0.3 0.9 0.8z"/><circle class="b" cx="6" cy="33.9" r="1.5"/><path class="b" d="m1.4 34.2c0 0.3-0.3 0.5-0.6 0.5-0.2 0-0.5-0.2-0.5-0.5 0-0.3 0.3-0.5 0.5-0.5 0.3 0 0.6 0.2 0.6 0.5z"/><path class="b" d="m13.9 41.9c0 0.1-0.1 0.2-0.2 0.2-0.1 0-0.1-0.1-0.1-0.2 0 0 0-0.1 0.1-0.1 0.1 0 0.2 0.1 0.2 0.1z"/><path class="b" d="m10.8 37.9c0 0.5-0.4 0.9-0.9 0.9-0.5 0-0.9-0.4-0.9-0.9 0-0.5 0.4-0.8 0.9-0.8 0.5 0 0.9 0.3 0.9 0.8z"/><circle class="b" cx="6" cy="33.9" r="1.5"/><path class="b" d="m7.1 28.7c0 0.3-0.2 0.5-0.5 0.5-0.3 0-0.5-0.2-0.5-0.5 0-0.2 0.2-0.5 0.5-0.5 0.3 0 0.5 0.3 0.5 0.5z"/><path class="b" d="m26.6 28.6c0 0-0.1 0.1-0.2 0.1-0.1 0-0.1-0.1-0.1-0.1 0-0.1 0-0.2 0.1-0.2 0.1 0 0.2 0.1 0.2 0.2z"/><path class="b" d="m23 25c0 0.5-0.4 0.9-0.9 0.9-0.5 0-0.9-0.4-0.9-0.9 0-0.4 0.4-0.8 0.9-0.8 0.5 0 0.9 0.4 0.9 0.8z"/><circle class="b" cx="17.8" cy="21.5" r="1.5"/><path class="b" d="m18.2 16.3c0 0.3-0.2 0.5-0.5 0.5-0.3 0-0.5-0.2-0.5-0.5 0-0.3 0.2-0.5 0.5-0.5 0.3 0 0.5 0.2 0.5 0.5z"/><path class="b" d="m26.6 28.6c0 0-0.1 0.1-0.2 0.1-0.1 0-0.1-0.1-0.1-0.1 0-0.1 0-0.2 0.1-0.2 0.1 0 0.2 0.1 0.2 0.2z"/><path class="b" d="m23 25c0 0.5-0.4 0.9-0.9 0.9-0.5 0-0.9-0.4-0.9-0.9 0-0.4 0.4-0.8 0.9-0.8 0.5 0 0.9 0.4 0.9 0.8z"/><circle class="b" cx="17.8" cy="21.5" r="1.5"/><path class="b" d="m13.2 22.5c0 0.2-0.2 0.5-0.5 0.5-0.3 0-0.5-0.3-0.5-0.5 0-0.3 0.2-0.5 0.5-0.5 0.3 0 0.5 0.2 0.5 0.5z"/><path class="b" d="m26.6 28.6c0 0-0.1 0.1-0.2 0.1-0.1 0-0.1-0.1-0.1-0.1 0-0.1 0-0.2 0.1-0.2 0.1 0 0.2 0.1 0.2 0.2z"/><path class="b" d="m30.8 24.2c0 0.5-0.4 0.9-0.9 0.9-0.5 0-0.8-0.4-0.8-0.9 0-0.4 0.3-0.8 0.8-0.8 0.5 0 0.9 0.4 0.9 0.8z"/><circle class="b" cx="33.4" cy="19.9" r="1.5"/><path class="b" d="m33 14.8c0 0.3-0.2 0.5-0.5 0.5-0.3 0-0.5-0.2-0.5-0.5 0-0.3 0.2-0.5 0.5-0.5 0.3 0 0.5 0.2 0.5 0.5z"/><path class="b" d="m26.6 28.6c0 0-0.1 0.1-0.2 0.1-0.1 0-0.1-0.1-0.1-0.1 0-0.1 0-0.2 0.1-0.2 0.1 0 0.2 0.1 0.2 0.2z"/><path class="b" d="m30.8 24.2c0 0.5-0.4 0.9-0.9 0.9-0.5 0-0.8-0.4-0.8-0.9 0-0.4 0.3-0.8 0.8-0.8 0.5 0 0.9 0.4 0.9 0.8z"/><circle class="b" cx="33.4" cy="19.9" r="1.5"/><path class="b" d="m39.1 19.8c0 0.3-0.2 0.5-0.5 0.5-0.3 0-0.5-0.2-0.5-0.5 0-0.3 0.2-0.5 0.5-0.5 0.3 0 0.5 0.2 0.5 0.5z"/><path class="b" d="m14.9 85.4c0 0.1-0.1 0.2-0.2 0.2-0.1 0-0.1-0.1-0.1-0.2 0-0.1 0-0.1 0.1-0.1 0.1 0 0.2 0 0.2 0.1z"/><path class="b" d="m11.8 81.4c0 0.5-0.4 0.9-0.9 0.9-0.5 0-0.9-0.4-0.9-0.9 0-0.5 0.4-0.9 0.9-0.9 0.5 0 0.9 0.4 0.9 0.9z"/><circle class="b" cx="7" cy="77.4" r="1.5"/><path class="b" d="m2.4 77.7c0 0.3-0.3 0.5-0.6 0.5-0.2 0-0.5-0.2-0.5-0.5 0-0.3 0.3-0.5 0.5-0.5 0.3 0 0.6 0.2 0.6 0.5z"/><path class="b" d="m14.9 85.4c0 0.1-0.1 0.2-0.2 0.2-0.1 0-0.1-0.1-0.1-0.2 0-0.1 0-0.1 0.1-0.1 0.1 0 0.2 0 0.2 0.1z"/><path class="b" d="m11.8 81.4c0 0.5-0.4 0.9-0.9 0.9-0.5 0-0.9-0.4-0.9-0.9 0-0.5 0.4-0.9 0.9-0.9 0.5 0 0.9 0.4 0.9 0.9z"/><circle class="b" cx="7" cy="77.4" r="1.5"/><path class="b" d="m8.1 72.2c0 0.3-0.3 0.5-0.5 0.5-0.3 0-0.5-0.2-0.5-0.5 0-0.3 0.2-0.5 0.5-0.5 0.2 0 0.5 0.2 0.5 0.5z"/><path class="b" d="m14.9 85.4c0 0.1-0.1 0.2-0.2 0.2-0.1 0-0.1-0.1-0.1-0.2 0-0.1 0-0.1 0.1-0.1 0.1 0 0.2 0 0.2 0.1z"/><path class="b" d="m11.6 89.3c0 0.4-0.4 0.8-0.9 0.8-0.5 0-0.9-0.4-0.9-0.8 0-0.5 0.4-0.9 0.9-0.9 0.5 0 0.9 0.4 0.9 0.9z"/><circle class="b" cx="6.7" cy="93.1" r="1.5"/><path class="b" d="m2 92.6c0 0.2-0.2 0.5-0.5 0.5-0.3 0-0.5-0.3-0.5-0.5 0-0.3 0.2-0.5 0.5-0.5 0.3 0 0.5 0.2 0.5 0.5z"/><path class="b" d="m14.9 85.4c0 0.1-0.1 0.2-0.2 0.2-0.1 0-0.1-0.1-0.1-0.2 0-0.1 0-0.1 0.1-0.1 0.1 0 0.2 0 0.2 0.1z"/><path class="b" d="m11.6 89.3c0 0.4-0.4 0.8-0.9 0.8-0.5 0-0.9-0.4-0.9-0.8 0-0.5 0.4-0.9 0.9-0.9 0.5 0 0.9 0.4 0.9 0.9z"/><circle class="b" cx="6.7" cy="93.1" r="1.5"/><path class="b" d="m7.5 98.3c0 0.3-0.2 0.5-0.5 0.5-0.3 0-0.5-0.2-0.5-0.5 0-0.3 0.2-0.5 0.5-0.5 0.3 0 0.5 0.2 0.5 0.5z"/><path class="b" d="m26.9 99.3c0 0.1 0 0.2-0.1 0.2-0.1 0-0.2-0.1-0.2-0.2 0 0 0.1-0.1 0.2-0.1 0.1 0 0.1 0.1 0.1 0.1z"/><path class="b" d="m23.2 102.7c0 0.4-0.4 0.8-0.9 0.8-0.5 0-0.8-0.4-0.8-0.8 0-0.5 0.3-0.9 0.8-0.9 0.5 0 0.9 0.4 0.9 0.9z"/><circle class="b" cx="17.9" cy="106" r="1.5"/><path class="b" d="m18 111.2c0 0.3-0.2 0.5-0.5 0.5-0.3 0-0.5-0.2-0.5-0.5 0-0.3 0.2-0.5 0.5-0.5 0.3 0 0.5 0.2 0.5 0.5z"/><path class="b" d="m26.9 99.3c0 0.1 0 0.2-0.1 0.2-0.1 0-0.2-0.1-0.2-0.2 0 0 0.1-0.1 0.2-0.1 0.1 0 0.1 0.1 0.1 0.1z"/><path class="b" d="m23.2 102.7c0 0.4-0.4 0.8-0.9 0.8-0.5 0-0.8-0.4-0.8-0.8 0-0.5 0.3-0.9 0.8-0.9 0.5 0 0.9 0.4 0.9 0.9z"/><circle class="b" cx="17.9" cy="106" r="1.5"/><path class="b" d="m13.3 104.8c0 0.3-0.2 0.5-0.5 0.5-0.3 0-0.5-0.2-0.5-0.5 0-0.3 0.2-0.5 0.5-0.5 0.3 0 0.5 0.2 0.5 0.5z"/><path class="b" d="m26.9 99.3c0 0.1 0 0.2-0.1 0.2-0.1 0-0.1-0.1-0.1-0.2 0 0 0-0.1 0.1-0.1 0.1 0 0.1 0.1 0.1 0.1z"/><path class="b" d="m31 103.8c0 0.5-0.4 0.9-0.9 0.9-0.5 0-0.9-0.4-0.9-0.9 0-0.5 0.4-0.9 0.9-0.9 0.5 0 0.9 0.4 0.9 0.9z"/><circle class="b" cx="33.4" cy="108.3" r="1.5"/><path class="b" d="m32.8 113.3c0 0.3-0.3 0.6-0.5 0.6-0.3 0-0.5-0.3-0.5-0.6 0-0.2 0.2-0.5 0.5-0.5 0.2 0 0.5 0.3 0.5 0.5z"/><path class="b" d="m26.9 99.3c0 0.1 0 0.2-0.1 0.2-0.1 0-0.1-0.1-0.1-0.2 0 0 0-0.1 0.1-0.1 0.1 0 0.1 0.1 0.1 0.1z"/><path class="b" d="m31 103.8c0 0.5-0.4 0.9-0.9 0.9-0.5 0-0.9-0.4-0.9-0.9 0-0.5 0.4-0.9 0.9-0.9 0.5 0 0.9 0.4 0.9 0.9z"/><circle class="b" cx="33.4" cy="108.3" r="1.5"/><path class="b" d="m39.1 108.6c0 0.3-0.2 0.5-0.5 0.5-0.3 0-0.5-0.2-0.5-0.5 0-0.3 0.2-0.5 0.5-0.5 0.3 0 0.5 0.2 0.5 0.5z"/><circle class="b" cx="60.2" cy="65.1" r="1.2"/><path class="b" d="m53.7 65.1c0-0.6 0.5-1 1-1 0.5 0 0.9 0.4 0.9 1 0 0.5-0.4 0.9-0.9 0.9-0.5 0-1-0.4-1-0.9z"/><path class="b" d="m49.8 50.2c0-0.1 0-0.2 0.1-0.2 0.1 0 0.2 0.1 0.2 0.2 0 0.1-0.1 0.1-0.2 0.1-0.1 0-0.1 0-0.1-0.1z"/><path class="b" d="m45 46.3c0-0.4 0.4-0.8 0.9-0.8 0.5 0 0.9 0.4 0.9 0.8 0 0.5-0.4 0.9-0.9 0.9-0.5 0-0.9-0.4-0.9-0.9z"/><circle class="b" cx="41.9" cy="42.5" r="1.5"/><path class="b" d="m41.7 37.3c0-0.3 0.2-0.5 0.5-0.5 0.3 0 0.5 0.2 0.5 0.5 0 0.3-0.2 0.5-0.5 0.5-0.3 0-0.5-0.2-0.5-0.5z"/><path class="b" d="m49.8 50.2c0-0.1 0-0.2 0.1-0.2 0.1 0 0.2 0.1 0.2 0.2 0 0.1-0.1 0.1-0.2 0.1-0.1 0-0.1 0-0.1-0.1z"/><path class="b" d="m45 46.3c0-0.4 0.4-0.8 0.9-0.8 0.5 0 0.9 0.4 0.9 0.8 0 0.5-0.4 0.9-0.9 0.9-0.5 0-0.9-0.4-0.9-0.9z"/><circle class="b" cx="41.9" cy="42.5" r="1.5"/><path class="b" d="m36.2 43c0-0.3 0.2-0.5 0.5-0.5 0.3 0 0.5 0.2 0.5 0.5 0 0.3-0.2 0.5-0.5 0.5-0.3 0-0.5-0.2-0.5-0.5z"/><path class="b" d="m51.3 81.8c-0.1 0-0.2-0.1-0.2-0.2 0.1 0 0.1-0.1 0.2-0.1 0.1 0 0.2 0.1 0.1 0.2 0 0.1-0.1 0.1-0.1 0.1z"/><path class="b" d="m46.7 85.8c-0.5-0.1-0.8-0.5-0.7-1 0-0.5 0.5-0.8 1-0.7 0.4 0.1 0.8 0.5 0.7 1-0.1 0.5-0.6 0.8-1 0.7z"/><circle class="b" cx="42.3" cy="88.3" r="1.5"/><path class="b" d="m37.2 87.6c-0.3 0-0.5-0.3-0.4-0.6 0-0.3 0.3-0.5 0.6-0.4 0.3 0 0.4 0.3 0.4 0.6-0.1 0.3-0.3 0.4-0.6 0.4z"/><path class="b" d="m51.3 81.8c-0.1 0-0.2-0.1-0.2-0.2 0.1 0 0.1-0.1 0.2-0.1 0.1 0 0.2 0.1 0.1 0.2 0 0.1-0.1 0.1-0.1 0.1z"/><path class="b" d="m46.7 85.8c-0.5-0.1-0.8-0.5-0.7-1 0-0.5 0.5-0.8 1-0.7 0.4 0.1 0.8 0.5 0.7 1-0.1 0.5-0.6 0.8-1 0.7z"/><circle class="b" cx="42.3" cy="88.3" r="1.5"/><path class="b" d="m41.9 94c-0.3-0.1-0.5-0.3-0.4-0.6 0-0.3 0.3-0.5 0.6-0.4 0.3 0 0.4 0.3 0.4 0.5-0.1 0.3-0.3 0.5-0.6 0.5z"/><path class="b" d="m45.9 65.2c0-0.1 0-0.2 0-0.2 0.1-0.1 0.2-0.1 0.2 0 0.1 0 0.1 0.1 0 0.2 0 0-0.1 0-0.2 0z"/><path class="b" d="m39.9 65.8c-0.4-0.4-0.4-0.9 0-1.3 0.3-0.3 0.8-0.3 1.2 0 0.3 0.4 0.3 0.9 0 1.3-0.4 0.3-0.9 0.3-1.2 0z"/><path class="b" d="m33.9 66.3c-0.6-0.6-0.6-1.5 0-2.1 0.5-0.6 1.5-0.6 2.1 0 0.5 0.6 0.5 1.5 0 2.1-0.6 0.6-1.6 0.6-2.1 0z"/><path class="b" d="m31.1 61.7c-0.2-0.2-0.2-0.5 0-0.7 0.2-0.2 0.5-0.2 0.7 0 0.2 0.2 0.2 0.5 0 0.7-0.2 0.2-0.5 0.2-0.7 0z"/><path class="b" d="m45.9 65.2c0-0.1 0-0.2 0-0.2 0.1-0.1 0.2-0.1 0.2 0 0.1 0 0.1 0.1 0 0.2 0 0-0.1 0-0.2 0z"/><path class="b" d="m39.9 65.8c-0.4-0.4-0.4-0.9 0-1.3 0.3-0.3 0.8-0.3 1.2 0 0.3 0.4 0.3 0.9 0 1.3-0.4 0.3-0.9 0.3-1.2 0z"/><path class="b" d="m33.9 66.3c-0.6-0.6-0.6-1.5 0-2.1 0.5-0.6 1.5-0.6 2.1 0 0.5 0.6 0.5 1.5 0 2.1-0.6 0.6-1.6 0.6-2.1 0z"/><path class="b" d="m31.3 69.7c-0.2-0.2-0.2-0.6 0-0.8 0.2-0.2 0.5-0.2 0.7 0 0.2 0.2 0.2 0.6 0 0.8-0.2 0.2-0.5 0.2-0.7 0z"/><path class="b" d="m62 33.6c-0.2 0.2-0.5 0.2-0.7 0-0.2-0.2-0.2-0.5-0.1-0.7 0.2-0.2 0.6-0.2 0.8 0 0.2 0.1 0.2 0.5 0 0.7z"/><path class="b" d="m61 98.5c0.2-0.2 0.5-0.2 0.7 0 0.2 0.3 0.2 0.6 0 0.8-0.2 0.2-0.6 0.2-0.8-0.1-0.2-0.2-0.2-0.5 0.1-0.7z"/></svg>